<mxfile host="app.diagrams.net" modified="2023-01-24T08:15:12.196Z" agent="5.0 (Windows NT 10.0; Win64; x64) AppleWebKit/537.36 (KHTML, like Gecko) Chrome/109.0.0.0 Safari/537.36" etag="8KaExTVUZxF0WTAd4P0C" version="20.8.10" type="github">
  <diagram name="Page-1" id="vKT-o-hNXw5XCsEazPBY">
    <mxGraphModel dx="1257" dy="634" grid="1" gridSize="10" guides="1" tooltips="1" connect="1" arrows="1" fold="1" page="1" pageScale="1" pageWidth="850" pageHeight="1100" math="0" shadow="0">
      <root>
        <mxCell id="0" />
        <mxCell id="1" parent="0" />
        <mxCell id="y-t7812rJKipOi-qZo8W-15" style="edgeStyle=orthogonalEdgeStyle;rounded=0;orthogonalLoop=1;jettySize=auto;html=1;exitX=0.5;exitY=1;exitDx=0;exitDy=0;exitPerimeter=0;entryX=0.5;entryY=0;entryDx=0;entryDy=0;" edge="1" parent="1" source="y-t7812rJKipOi-qZo8W-1" target="y-t7812rJKipOi-qZo8W-2">
          <mxGeometry relative="1" as="geometry" />
        </mxCell>
        <mxCell id="y-t7812rJKipOi-qZo8W-1" value="Start" style="strokeWidth=2;html=1;shape=mxgraph.flowchart.start_2;whiteSpace=wrap;" vertex="1" parent="1">
          <mxGeometry x="360" y="40" width="80" height="80" as="geometry" />
        </mxCell>
        <mxCell id="y-t7812rJKipOi-qZo8W-16" style="edgeStyle=orthogonalEdgeStyle;rounded=0;orthogonalLoop=1;jettySize=auto;html=1;exitX=0.5;exitY=1;exitDx=0;exitDy=0;entryX=0.5;entryY=0;entryDx=0;entryDy=0;" edge="1" parent="1" source="y-t7812rJKipOi-qZo8W-2" target="y-t7812rJKipOi-qZo8W-4">
          <mxGeometry relative="1" as="geometry" />
        </mxCell>
        <mxCell id="y-t7812rJKipOi-qZo8W-2" value="Open App" style="rounded=1;whiteSpace=wrap;html=1;absoluteArcSize=1;arcSize=14;strokeWidth=2;" vertex="1" parent="1">
          <mxGeometry x="360" y="160" width="80" height="80" as="geometry" />
        </mxCell>
        <mxCell id="y-t7812rJKipOi-qZo8W-17" style="edgeStyle=orthogonalEdgeStyle;rounded=0;orthogonalLoop=1;jettySize=auto;html=1;exitX=0.5;exitY=1;exitDx=0;exitDy=0;entryX=0.5;entryY=0;entryDx=0;entryDy=0;" edge="1" parent="1" source="y-t7812rJKipOi-qZo8W-4" target="y-t7812rJKipOi-qZo8W-7">
          <mxGeometry relative="1" as="geometry" />
        </mxCell>
        <mxCell id="y-t7812rJKipOi-qZo8W-4" value="Input Email" style="rounded=1;whiteSpace=wrap;html=1;absoluteArcSize=1;arcSize=14;strokeWidth=2;" vertex="1" parent="1">
          <mxGeometry x="360" y="280" width="80" height="80" as="geometry" />
        </mxCell>
        <mxCell id="y-t7812rJKipOi-qZo8W-18" style="edgeStyle=orthogonalEdgeStyle;rounded=0;orthogonalLoop=1;jettySize=auto;html=1;exitX=0.5;exitY=1;exitDx=0;exitDy=0;entryX=0.5;entryY=0;entryDx=0;entryDy=0;" edge="1" parent="1" source="y-t7812rJKipOi-qZo8W-7" target="y-t7812rJKipOi-qZo8W-9">
          <mxGeometry relative="1" as="geometry" />
        </mxCell>
        <mxCell id="y-t7812rJKipOi-qZo8W-7" value="Add Biometric in App" style="rounded=1;whiteSpace=wrap;html=1;absoluteArcSize=1;arcSize=14;strokeWidth=2;" vertex="1" parent="1">
          <mxGeometry x="360" y="400" width="80" height="80" as="geometry" />
        </mxCell>
        <mxCell id="y-t7812rJKipOi-qZo8W-19" style="edgeStyle=orthogonalEdgeStyle;rounded=0;orthogonalLoop=1;jettySize=auto;html=1;exitX=0.5;exitY=1;exitDx=0;exitDy=0;entryX=0.5;entryY=0;entryDx=0;entryDy=0;" edge="1" parent="1" source="y-t7812rJKipOi-qZo8W-9" target="y-t7812rJKipOi-qZo8W-11">
          <mxGeometry relative="1" as="geometry" />
        </mxCell>
        <mxCell id="y-t7812rJKipOi-qZo8W-9" value="Create Recovery Kit" style="rounded=1;whiteSpace=wrap;html=1;absoluteArcSize=1;arcSize=14;strokeWidth=2;" vertex="1" parent="1">
          <mxGeometry x="360" y="520" width="80" height="80" as="geometry" />
        </mxCell>
        <mxCell id="y-t7812rJKipOi-qZo8W-20" style="edgeStyle=orthogonalEdgeStyle;rounded=0;orthogonalLoop=1;jettySize=auto;html=1;exitX=0.5;exitY=1;exitDx=0;exitDy=0;entryX=0.5;entryY=0;entryDx=0;entryDy=0;" edge="1" parent="1" source="y-t7812rJKipOi-qZo8W-11" target="y-t7812rJKipOi-qZo8W-13">
          <mxGeometry relative="1" as="geometry" />
        </mxCell>
        <mxCell id="y-t7812rJKipOi-qZo8W-11" value="Connect to Google Drive Account" style="rounded=1;whiteSpace=wrap;html=1;absoluteArcSize=1;arcSize=14;strokeWidth=2;" vertex="1" parent="1">
          <mxGeometry x="360" y="640" width="80" height="80" as="geometry" />
        </mxCell>
        <mxCell id="y-t7812rJKipOi-qZo8W-21" style="edgeStyle=orthogonalEdgeStyle;rounded=0;orthogonalLoop=1;jettySize=auto;html=1;exitX=0.5;exitY=1;exitDx=0;exitDy=0;entryX=0.5;entryY=0;entryDx=0;entryDy=0;entryPerimeter=0;" edge="1" parent="1" source="y-t7812rJKipOi-qZo8W-13" target="y-t7812rJKipOi-qZo8W-14">
          <mxGeometry relative="1" as="geometry" />
        </mxCell>
        <mxCell id="y-t7812rJKipOi-qZo8W-13" value="Explore the App" style="rounded=1;whiteSpace=wrap;html=1;absoluteArcSize=1;arcSize=14;strokeWidth=2;" vertex="1" parent="1">
          <mxGeometry x="360" y="760" width="80" height="80" as="geometry" />
        </mxCell>
        <mxCell id="y-t7812rJKipOi-qZo8W-14" value="End" style="strokeWidth=2;html=1;shape=mxgraph.flowchart.start_2;whiteSpace=wrap;" vertex="1" parent="1">
          <mxGeometry x="360" y="880" width="80" height="80" as="geometry" />
        </mxCell>
      </root>
    </mxGraphModel>
  </diagram>
</mxfile>
